<svg width="1920" height="1080" viewBox="0 0 1920 1080" fill="none" xmlns="http://www.w3.org/2000/svg">
<path d="M1377.34 753.751C1376.67 753.751 1376 753.482 1375.49 752.973L1369 746.482C1367.98 745.462 1367.98 743.799 1369 742.753C1370.02 741.707 1371.68 741.734 1372.73 742.753L1379.22 749.244C1380.24 750.264 1380.24 751.927 1379.22 752.973C1378.68 753.509 1378.01 753.751 1377.34 753.751Z" fill="#F5F5F5" stroke="black" stroke-width="0.000533333"/>
<path d="M1289.12 841.971C1288.45 841.971 1287.78 841.703 1287.27 841.193L1280.81 834.702C1279.79 833.683 1279.79 832.02 1280.81 830.974C1281.83 829.954 1283.49 829.954 1284.54 830.974L1291 837.465C1292.02 838.484 1292.02 840.147 1291 841.193C1290.46 841.73 1289.79 841.971 1289.12 841.971Z" fill="#F5F5F5" stroke="black" stroke-width="0.000533333"/>
<path d="M1342.04 806.672C1341.37 806.672 1340.7 806.404 1340.19 805.894L1316.11 781.807C1315.09 780.788 1315.09 779.125 1316.11 778.079C1317.13 777.06 1318.79 777.06 1319.83 778.079L1343.92 802.166C1344.94 803.185 1344.94 804.848 1343.92 805.894C1343.38 806.404 1342.71 806.672 1342.04 806.672Z" fill="#F5F5F5" stroke="black" stroke-width="0.000533333"/>
<path d="M1331.05 813.271C1330.38 813.271 1329.7 813.002 1329.2 812.493L1309.51 792.805C1308.49 791.785 1308.49 790.122 1309.51 789.076C1310.53 788.057 1312.19 788.057 1313.24 789.076L1332.92 808.764C1333.94 809.784 1333.94 811.447 1332.92 812.493C1332.39 813.002 1331.72 813.271 1331.05 813.271Z" fill="#F5F5F5" stroke="black" stroke-width="0.000533333"/>
<path d="M1348.64 795.675C1347.97 795.675 1347.3 795.407 1346.79 794.897L1327.1 775.209C1326.08 774.19 1326.08 772.527 1327.1 771.48C1328.12 770.461 1329.79 770.461 1330.83 771.48L1350.52 791.168C1351.54 792.188 1351.54 793.851 1350.52 794.897C1349.98 795.407 1349.31 795.675 1348.64 795.675Z" fill="#F5F5F5" stroke="black" stroke-width="0.000533333"/>
<path d="M1293.65 856.375C1292.64 856.375 1291.64 855.999 1290.87 855.222C1289.34 853.693 1289.34 851.198 1290.87 849.642C1301.57 838.94 1299.61 826.065 1297.54 812.412C1295.37 798.116 1292.93 781.915 1306.42 768.423C1319.94 754.931 1336.12 757.372 1350.41 759.544C1364.07 761.61 1376.97 763.568 1387.64 752.865C1389.17 751.336 1391.67 751.336 1393.22 752.865C1394.75 754.394 1394.75 756.889 1393.22 758.445C1379.7 771.963 1363.53 769.496 1349.23 767.323C1335.58 765.258 1322.68 763.299 1312 774.002C1301.3 784.704 1303.26 797.579 1305.32 811.232C1307.5 825.529 1309.94 841.73 1296.44 855.222C1295.67 855.999 1294.65 856.375 1293.65 856.375Z" fill="#F0D6E8" stroke="black" stroke-width="0.000533333"/>
<path d="M1269.57 832.288C1268.55 832.288 1267.56 831.912 1266.78 831.135C1265.25 829.606 1265.25 827.111 1266.78 825.555C1280.3 812.037 1296.5 814.504 1310.77 816.677C1324.42 818.742 1337.32 820.701 1348 809.998C1358.7 799.296 1356.74 786.421 1354.68 772.768C1352.5 758.471 1350.06 742.27 1363.56 728.778C1365.08 727.249 1367.58 727.249 1369.13 728.778C1370.66 730.307 1370.66 732.802 1369.13 734.358C1358.43 745.06 1360.39 757.935 1362.46 771.588C1364.63 785.884 1367.07 802.085 1353.58 815.577C1340.06 829.096 1323.88 826.628 1309.59 824.456C1295.93 822.39 1283.03 820.432 1272.36 831.135C1271.58 831.912 1270.59 832.288 1269.57 832.288Z" fill="#F0D6E8" stroke="black" stroke-width="0.000533333"/>
<path d="M525.469 226.313C523.125 226.313 520.781 225.375 519 223.594L496.313 200.906C492.75 197.344 492.75 191.531 496.313 187.875C499.875 184.219 505.688 184.313 509.344 187.875L532.031 210.563C535.594 214.125 535.594 219.938 532.031 223.594C530.156 225.469 527.813 226.313 525.469 226.313Z" fill="#F5F5F5" stroke="black" stroke-width="0.000695385"/>
<path d="M217.125 534.656C214.781 534.656 212.437 533.719 210.656 531.938L188.062 509.25C184.5 505.687 184.5 499.875 188.062 496.219C191.625 492.656 197.438 492.656 201.094 496.219L223.687 518.906C227.25 522.469 227.25 528.281 223.687 531.938C221.812 533.813 219.469 534.656 217.125 534.656Z" fill="#F5F5F5" stroke="black" stroke-width="0.000695385"/>
<path d="M402.094 411.281C399.75 411.281 397.406 410.344 395.625 408.562L311.437 324.375C307.875 320.812 307.875 315 311.437 311.344C315 307.781 320.812 307.781 324.469 311.344L408.656 395.531C412.219 399.094 412.219 404.906 408.656 408.562C406.781 410.344 404.438 411.281 402.094 411.281Z" fill="#F5F5F5" stroke="black" stroke-width="0.000695385"/>
<path d="M363.656 434.344C361.312 434.344 358.969 433.406 357.188 431.625L288.375 362.813C284.813 359.25 284.813 353.438 288.375 349.781C291.938 346.219 297.75 346.219 301.406 349.781L370.219 418.594C373.781 422.156 373.781 427.969 370.219 431.625C368.344 433.406 366 434.344 363.656 434.344Z" fill="#F5F5F5" stroke="black" stroke-width="0.000695385"/>
<path d="M425.156 372.844C422.813 372.844 420.469 371.906 418.688 370.125L349.875 301.313C346.313 297.75 346.313 291.938 349.875 288.281C353.438 284.719 359.25 284.719 362.906 288.281L431.719 357.094C435.281 360.656 435.281 366.469 431.719 370.125C429.844 371.906 427.5 372.844 425.156 372.844Z" fill="#F5F5F5" stroke="black" stroke-width="0.000695385"/>
<path d="M232.969 585C229.406 585 225.938 583.688 223.219 580.969C217.875 575.625 217.875 566.906 223.219 561.469C260.625 524.063 253.781 479.063 246.563 431.344C238.969 381.375 230.438 324.75 277.594 277.594C324.844 230.438 381.375 238.969 431.344 246.563C479.062 253.781 524.156 260.625 561.469 223.219C566.813 217.875 575.531 217.875 580.969 223.219C586.312 228.563 586.312 237.281 580.969 242.719C533.719 289.969 477.188 281.344 427.219 273.75C379.5 266.531 334.406 259.688 297.094 297.094C259.688 334.5 266.531 379.5 273.75 427.219C281.344 477.187 289.875 533.813 242.719 580.969C240 583.688 236.438 585 232.969 585Z" fill="#F0D6E8" stroke="black" stroke-width="0.000695385"/>
<path d="M148.781 500.813C145.219 500.813 141.75 499.5 139.031 496.781C133.688 491.438 133.688 482.719 139.031 477.281C186.281 430.031 242.906 438.656 292.781 446.25C340.5 453.469 385.594 460.313 422.906 422.906C460.312 385.5 453.469 340.5 446.25 292.781C438.656 242.813 430.125 186.188 477.281 139.031C482.625 133.688 491.344 133.688 496.781 139.031C502.125 144.375 502.125 153.094 496.781 158.531C459.375 195.938 466.219 240.938 473.437 288.656C481.031 338.625 489.563 395.25 442.406 442.406C395.156 489.656 338.625 481.031 288.656 473.438C240.937 466.219 195.844 459.375 158.531 496.781C155.813 499.5 152.344 500.813 148.781 500.813Z" fill="#F0D6E8" stroke="black" stroke-width="0.000695385"/>
<path d="M919.342 938.751C918.672 938.751 918.001 938.482 917.492 937.973L911.001 931.482C909.981 930.462 909.981 928.799 911.001 927.753C912.02 926.707 913.683 926.734 914.729 927.753L921.22 934.244C922.239 935.264 922.239 936.927 921.22 937.973C920.684 938.509 920.013 938.751 919.342 938.751Z" fill="#F5F5F5" stroke="black" stroke-width="0.000533333"/>
<path d="M831.122 1026.97C830.451 1026.97 829.781 1026.7 829.271 1026.19L822.807 1019.7C821.788 1018.68 821.788 1017.02 822.807 1015.97C823.826 1014.95 825.489 1014.95 826.535 1015.97L832.999 1022.46C834.019 1023.48 834.019 1025.15 832.999 1026.19C832.463 1026.73 831.792 1026.97 831.122 1026.97Z" fill="#F5F5F5" stroke="black" stroke-width="0.000533333"/>
<path d="M884.043 991.672C883.373 991.672 882.702 991.404 882.193 990.894L858.106 966.807C857.086 965.788 857.086 964.125 858.106 963.079C859.125 962.06 860.788 962.06 861.834 963.079L885.921 987.166C886.94 988.185 886.94 989.848 885.921 990.894C885.385 991.404 884.714 991.672 884.043 991.672Z" fill="#F5F5F5" stroke="black" stroke-width="0.000533333"/>
<path d="M873.046 998.271C872.376 998.271 871.705 998.002 871.195 997.493L851.507 977.805C850.488 976.785 850.488 975.122 851.507 974.076C852.527 973.057 854.19 973.057 855.236 974.076L874.924 993.764C875.943 994.784 875.943 996.447 874.924 997.493C874.387 998.002 873.717 998.271 873.046 998.271Z" fill="#F5F5F5" stroke="black" stroke-width="0.000533333"/>
<path d="M890.642 980.675C889.971 980.675 889.301 980.406 888.791 979.897L869.103 960.209C868.084 959.19 868.084 957.527 869.103 956.48C870.122 955.461 871.785 955.461 872.832 956.48L892.52 976.168C893.539 977.188 893.539 978.851 892.52 979.897C891.983 980.406 891.313 980.675 890.642 980.675Z" fill="#F5F5F5" stroke="black" stroke-width="0.000533333"/>
<path d="M835.655 1041.37C834.636 1041.37 833.643 1041 832.865 1040.22C831.336 1038.69 831.336 1036.2 832.865 1034.64C843.568 1023.94 841.61 1011.07 839.544 997.412C837.372 983.116 834.931 966.915 848.423 953.423C861.941 939.931 878.116 942.372 892.412 944.544C906.065 946.61 918.967 948.568 929.642 937.865C931.171 936.336 933.666 936.336 935.222 937.865C936.751 939.394 936.751 941.889 935.222 943.445C921.703 956.963 905.529 954.496 891.232 952.323C877.579 950.258 864.677 948.299 854.002 959.002C843.299 969.704 845.258 982.579 847.323 996.232C849.496 1010.53 851.936 1026.73 838.445 1040.22C837.667 1041 836.647 1041.37 835.655 1041.37Z" fill="#F0D6E8" stroke="black" stroke-width="0.000533333"/>
<path d="M811.568 1017.29C810.549 1017.29 809.556 1016.91 808.778 1016.13C807.249 1014.61 807.249 1012.11 808.778 1010.56C822.297 997.037 838.498 999.504 852.768 1001.68C866.421 1003.74 879.323 1005.7 889.998 994.998C900.701 984.296 898.742 971.421 896.677 957.768C894.504 943.471 892.064 927.27 905.555 913.778C907.084 912.249 909.579 912.249 911.135 913.778C912.664 915.307 912.664 917.802 911.135 919.358C900.432 930.06 902.39 942.935 904.456 956.588C906.628 970.884 909.069 987.085 895.577 1000.58C882.059 1014.1 865.884 1011.63 851.588 1009.46C837.935 1007.39 825.033 1005.43 814.358 1016.13C813.58 1016.91 812.587 1017.29 811.568 1017.29Z" fill="#F0D6E8" stroke="black" stroke-width="0.000533333"/>
<path d="M1713.98 335.014C1712.73 335.014 1711.47 334.513 1710.52 333.561L1698.39 321.429C1696.48 319.524 1696.48 316.416 1698.39 314.461C1700.29 312.506 1703.4 312.556 1705.36 314.461L1717.49 326.592C1719.39 328.497 1719.39 331.605 1717.49 333.561C1716.49 334.563 1715.23 335.014 1713.98 335.014Z" fill="#F5F5F5" stroke="black" stroke-width="0.000533333"/>
<path d="M1549.1 499.893C1547.85 499.893 1546.6 499.391 1545.64 498.439L1533.56 486.307C1531.66 484.402 1531.66 481.294 1533.56 479.339C1535.47 477.434 1538.57 477.434 1540.53 479.339L1552.61 491.471C1554.52 493.376 1554.52 496.484 1552.61 498.439C1551.61 499.441 1550.35 499.893 1549.1 499.893Z" fill="#F5F5F5" stroke="black" stroke-width="0.000533333"/>
<path d="M1648.01 433.921C1646.76 433.921 1645.5 433.42 1644.55 432.467L1599.53 387.451C1597.63 385.546 1597.63 382.437 1599.53 380.482C1601.44 378.577 1604.55 378.577 1606.5 380.482L1651.52 425.499C1653.42 427.404 1653.42 430.512 1651.52 432.467C1650.52 433.42 1649.26 433.921 1648.01 433.921Z" fill="#F5F5F5" stroke="black" stroke-width="0.000533333"/>
<path d="M1627.46 446.253C1626.2 446.253 1624.95 445.752 1624 444.799L1587.2 408.004C1585.3 406.099 1585.3 402.991 1587.2 401.036C1589.11 399.131 1592.21 399.131 1594.17 401.036L1630.96 437.831C1632.87 439.736 1632.87 442.844 1630.96 444.799C1629.96 445.752 1628.71 446.253 1627.46 446.253Z" fill="#F5F5F5" stroke="black" stroke-width="0.000533333"/>
<path d="M1660.34 413.368C1659.09 413.368 1657.83 412.867 1656.88 411.914L1620.09 375.118C1618.18 373.214 1618.18 370.105 1620.09 368.15C1621.99 366.245 1625.1 366.245 1627.05 368.15L1663.85 404.946C1665.75 406.851 1665.75 409.959 1663.85 411.914C1662.85 412.867 1661.59 413.368 1660.34 413.368Z" fill="#F5F5F5" stroke="black" stroke-width="0.000533333"/>
<path d="M1557.57 526.812C1555.67 526.812 1553.81 526.111 1552.36 524.657C1549.5 521.799 1549.5 517.137 1552.36 514.23C1572.36 494.228 1568.7 470.165 1564.84 444.649C1560.78 417.93 1556.22 387.651 1581.44 362.436C1606.7 337.22 1636.93 341.782 1663.65 345.842C1689.17 349.702 1713.28 353.362 1733.23 333.36C1736.09 330.503 1740.75 330.503 1743.66 333.36C1746.51 336.217 1746.51 340.88 1743.66 343.787C1718.39 369.053 1688.16 364.441 1661.44 360.38C1635.93 356.52 1611.81 352.861 1591.86 372.863C1571.86 392.865 1575.52 416.927 1579.38 442.443C1583.44 469.163 1588 499.441 1562.79 524.657C1561.33 526.111 1559.43 526.812 1557.57 526.812Z" fill="#F0D6E8" stroke="black" stroke-width="0.000533333"/>
<path d="M1512.56 481.796C1510.65 481.796 1508.8 481.094 1507.34 479.64C1504.49 476.783 1504.49 472.12 1507.34 469.213C1532.61 443.947 1562.89 448.559 1589.56 452.62C1615.07 456.48 1639.19 460.139 1659.14 440.137C1679.14 420.135 1675.48 396.073 1671.62 370.557C1667.56 343.837 1663 313.559 1688.21 288.343C1691.07 285.486 1695.73 285.486 1698.64 288.343C1701.5 291.201 1701.5 295.863 1698.64 298.77C1678.64 318.772 1682.3 342.835 1686.16 368.351C1690.22 395.07 1694.78 425.349 1669.56 450.564C1644.3 475.83 1614.07 471.218 1587.35 467.158C1561.83 463.298 1537.72 459.638 1517.77 479.64C1516.32 481.094 1514.46 481.796 1512.56 481.796Z" fill="#F0D6E8" stroke="black" stroke-width="0.000533333"/>
<path d="M1191.19 281.319C1188.27 281.319 1185.36 280.154 1183.15 277.939L1154.94 249.738C1150.52 245.309 1150.52 238.084 1154.94 233.539C1159.37 228.994 1166.6 229.111 1171.14 233.539L1199.34 261.741C1203.77 266.169 1203.77 273.395 1199.34 277.939C1197.01 280.27 1194.1 281.319 1191.19 281.319Z" fill="#F5F5F5" stroke="black" stroke-width="0.000533333"/>
<path d="M807.898 664.607C804.985 664.607 802.072 663.442 799.857 661.228L771.772 633.026C767.344 628.598 767.344 621.372 771.772 616.827C776.201 612.399 783.426 612.399 787.971 616.827L816.056 645.029C820.484 649.458 820.484 656.683 816.056 661.228C813.725 663.559 810.812 664.607 807.898 664.607Z" fill="#F5F5F5" stroke="black" stroke-width="0.000533333"/>
<path d="M1037.82 511.245C1034.91 511.245 1032 510.08 1029.78 507.866L925.134 403.216C920.706 398.788 920.706 391.562 925.134 387.018C929.563 382.589 936.788 382.589 941.333 387.018L1045.98 491.667C1050.41 496.096 1050.41 503.321 1045.98 507.866C1043.65 510.08 1040.74 511.245 1037.82 511.245Z" fill="#F5F5F5" stroke="black" stroke-width="0.000533333"/>
<path d="M990.045 539.913C987.132 539.913 984.218 538.748 982.004 536.534L896.466 450.996C892.038 446.568 892.038 439.342 896.466 434.798C900.895 430.369 908.12 430.369 912.665 434.798L998.203 520.335C1002.63 524.764 1002.63 531.989 998.203 536.534C995.872 538.748 992.958 539.913 990.045 539.913Z" fill="#F5F5F5" stroke="black" stroke-width="0.000533333"/>
<path d="M1066.49 463.465C1063.58 463.465 1060.67 462.3 1058.45 460.086L972.914 374.548C968.486 370.12 968.486 362.895 972.914 358.35C977.342 353.921 984.568 353.921 989.113 358.35L1074.65 443.887C1079.08 448.316 1079.08 455.541 1074.65 460.086C1072.32 462.3 1069.41 463.465 1066.49 463.465Z" fill="#F5F5F5" stroke="black" stroke-width="0.000533333"/>
<path d="M827.593 727.187C823.165 727.187 818.853 725.556 815.473 722.176C808.831 715.534 808.831 704.696 815.473 697.937C861.971 651.439 853.464 595.501 844.491 536.184C835.051 474.07 824.447 403.682 883.064 345.064C941.799 286.447 1012.07 297.051 1074.18 306.491C1133.5 315.464 1189.56 323.971 1235.94 277.473C1242.58 270.831 1253.42 270.831 1260.18 277.473C1266.82 284.116 1266.82 294.954 1260.18 301.713C1201.44 360.447 1131.17 349.726 1069.06 340.286C1009.74 331.313 953.686 322.806 907.304 369.304C860.806 415.802 869.313 471.74 878.286 531.057C887.726 593.171 898.331 663.559 839.713 722.176C836.333 725.556 831.905 727.187 827.593 727.187Z" fill="#F0D6E8" stroke="black" stroke-width="0.000533333"/>
<path d="M722.943 622.538C718.515 622.538 714.203 620.906 710.824 617.527C704.181 610.884 704.181 600.046 710.824 593.287C769.558 534.553 839.946 545.274 901.943 554.714C961.26 563.687 1017.31 572.194 1063.7 525.696C1110.19 479.198 1101.69 423.26 1092.71 363.943C1083.27 301.829 1072.67 231.441 1131.29 172.824C1137.93 166.181 1148.77 166.181 1155.53 172.824C1162.17 179.466 1162.17 190.304 1155.53 197.063C1109.03 243.561 1117.54 299.499 1126.51 358.816C1135.95 420.93 1146.55 491.318 1087.94 549.936C1029.2 608.67 958.93 597.949 896.816 588.509C837.499 579.536 781.445 571.029 735.063 617.527C731.684 620.906 727.372 622.538 722.943 622.538Z" fill="#F0D6E8" stroke="black" stroke-width="0.000533333"/>
<path d="M365.639 736.476C364.008 736.476 362.377 735.823 361.138 734.584L345.351 718.797C342.872 716.318 342.872 712.274 345.351 709.73C347.83 707.186 351.874 707.251 354.418 709.73L370.205 725.516C372.684 727.995 372.684 732.04 370.205 734.584C368.9 735.889 367.27 736.476 365.639 736.476Z" fill="#F5F5F5" stroke="black" stroke-width="0.000695385"/>
<path d="M151.083 951.032C149.452 951.032 147.821 950.379 146.582 949.14L130.86 933.353C128.381 930.874 128.381 926.83 130.86 924.286C133.339 921.807 137.384 921.807 139.928 924.286L155.649 940.072C158.128 942.551 158.128 946.596 155.649 949.14C154.345 950.445 152.714 951.032 151.083 951.032Z" fill="#F5F5F5" stroke="black" stroke-width="0.000695385"/>
<path d="M279.79 865.183C278.159 865.183 276.529 864.531 275.289 863.291L216.709 804.711C214.23 802.232 214.23 798.187 216.709 795.643C219.188 793.164 223.232 793.164 225.776 795.643L284.357 854.224C286.836 856.703 286.836 860.747 284.357 863.291C283.052 864.531 281.421 865.183 279.79 865.183Z" fill="#F5F5F5" stroke="black" stroke-width="0.000695385"/>
<path d="M253.044 881.231C251.413 881.231 249.782 880.579 248.543 879.339L200.661 831.457C198.182 828.978 198.182 824.934 200.661 822.389C203.14 819.911 207.184 819.911 209.729 822.389L257.611 870.271C260.089 872.75 260.089 876.795 257.611 879.339C256.306 880.579 254.675 881.231 253.044 881.231Z" fill="#F5F5F5" stroke="black" stroke-width="0.000695385"/>
<path d="M295.838 838.437C294.207 838.437 292.576 837.785 291.337 836.545L243.455 788.663C240.976 786.184 240.976 782.14 243.455 779.596C245.934 777.117 249.978 777.117 252.522 779.596L300.404 827.478C302.883 829.957 302.883 834.001 300.404 836.545C299.1 837.785 297.469 838.437 295.838 838.437Z" fill="#F5F5F5" stroke="black" stroke-width="0.000695385"/>
<path d="M162.107 986.063C159.629 986.063 157.215 985.149 155.323 983.257C151.605 979.539 151.605 973.472 155.323 969.689C181.352 943.66 176.589 912.348 171.566 879.143C166.282 844.373 160.346 804.972 193.159 772.159C226.037 739.346 265.373 745.282 300.143 750.566C333.348 755.589 364.725 760.352 390.689 734.323C394.407 730.605 400.474 730.605 404.257 734.323C407.976 738.041 407.976 744.108 404.257 747.892C371.379 780.77 332.043 774.768 297.273 769.484C264.069 764.461 232.691 759.699 206.728 785.728C180.699 811.756 185.461 843.069 190.484 876.273C195.768 911.043 201.705 950.445 168.892 983.257C167 985.149 164.521 986.063 162.107 986.063Z" fill="#F0D6E8" stroke="black" stroke-width="0.000695385"/>
<path d="M103.527 927.482C101.048 927.482 98.6344 926.569 96.7426 924.677C93.0242 920.959 93.0242 914.892 96.7426 911.108C129.621 878.23 169.022 884.232 203.727 889.516C236.931 894.539 268.309 899.301 294.272 873.272C320.301 847.244 315.539 815.931 310.516 782.727C305.232 747.957 299.295 708.555 332.108 675.743C335.827 672.024 341.893 672.024 345.677 675.743C349.395 679.461 349.395 685.528 345.677 689.311C319.648 715.34 324.411 746.652 329.434 779.857C334.718 814.627 340.654 854.028 307.841 886.841C274.963 919.719 235.627 913.718 200.857 908.434C167.652 903.411 136.275 898.648 110.311 924.677C108.42 926.569 106.006 927.482 103.527 927.482Z" fill="#F0D6E8" stroke="black" stroke-width="0.000695385"/>
<path d="M1815.98 816.014C1814.73 816.014 1813.47 815.513 1812.52 814.561L1800.39 802.429C1798.48 800.524 1798.48 797.416 1800.39 795.461C1802.29 793.506 1805.4 793.556 1807.36 795.461L1819.49 807.593C1821.39 809.497 1821.39 812.606 1819.49 814.561C1818.49 815.563 1817.23 816.014 1815.98 816.014Z" fill="#F5F5F5" stroke="black" stroke-width="0.000533333"/>
<path d="M1651.1 980.893C1649.85 980.893 1648.6 980.391 1647.64 979.439L1635.56 967.307C1633.66 965.402 1633.66 962.294 1635.56 960.339C1637.47 958.434 1640.57 958.434 1642.53 960.339L1654.61 972.471C1656.52 974.376 1656.52 977.484 1654.61 979.439C1653.61 980.441 1652.35 980.893 1651.1 980.893Z" fill="#F5F5F5" stroke="black" stroke-width="0.000533333"/>
<path d="M1750.01 914.921C1748.76 914.921 1747.5 914.42 1746.55 913.467L1701.53 868.451C1699.63 866.546 1699.63 863.437 1701.53 861.482C1703.44 859.577 1706.55 859.577 1708.5 861.482L1753.52 906.499C1755.42 908.404 1755.42 911.512 1753.52 913.467C1752.52 914.42 1751.26 914.921 1750.01 914.921Z" fill="#F5F5F5" stroke="black" stroke-width="0.000533333"/>
<path d="M1729.46 927.253C1728.2 927.253 1726.95 926.752 1726 925.799L1689.2 889.004C1687.3 887.099 1687.3 883.991 1689.2 882.036C1691.11 880.131 1694.21 880.131 1696.17 882.036L1732.96 918.831C1734.87 920.736 1734.87 923.844 1732.96 925.799C1731.96 926.752 1730.71 927.253 1729.46 927.253Z" fill="#F5F5F5" stroke="black" stroke-width="0.000533333"/>
<path d="M1762.34 894.368C1761.09 894.368 1759.83 893.867 1758.88 892.914L1722.09 856.119C1720.18 854.214 1720.18 851.106 1722.09 849.15C1723.99 847.246 1727.1 847.246 1729.05 849.15L1765.85 885.946C1767.75 887.851 1767.75 890.959 1765.85 892.914C1764.85 893.867 1763.59 894.368 1762.34 894.368Z" fill="#F5F5F5" stroke="black" stroke-width="0.000533333"/>
<path d="M1659.57 1007.81C1657.67 1007.81 1655.81 1007.11 1654.36 1005.66C1651.5 1002.8 1651.5 998.137 1654.36 995.23C1674.36 975.228 1670.7 951.165 1666.84 925.649C1662.78 898.93 1658.22 868.651 1683.44 843.436C1708.7 818.22 1738.93 822.782 1765.65 826.842C1791.17 830.702 1815.28 834.362 1835.23 814.36C1838.09 811.503 1842.75 811.503 1845.66 814.36C1848.51 817.217 1848.51 821.88 1845.66 824.787C1820.39 850.053 1790.16 845.441 1763.44 841.38C1737.93 837.52 1713.81 833.861 1693.86 853.863C1673.86 873.865 1677.52 897.927 1681.38 923.443C1685.44 950.163 1690 980.441 1664.79 1005.66C1663.33 1007.11 1661.43 1007.81 1659.57 1007.81Z" fill="#F0D6E8" stroke="black" stroke-width="0.000533333"/>
<path d="M1614.56 962.796C1612.65 962.796 1610.8 962.094 1609.34 960.64C1606.49 957.783 1606.49 953.12 1609.34 950.213C1634.61 924.947 1664.89 929.559 1691.56 933.62C1717.07 937.48 1741.19 941.139 1761.14 921.137C1781.14 901.135 1777.48 877.073 1773.62 851.557C1769.56 824.837 1765 794.559 1790.21 769.343C1793.07 766.486 1797.73 766.486 1800.64 769.343C1803.5 772.201 1803.5 776.863 1800.64 779.77C1780.64 799.772 1784.3 823.835 1788.16 849.351C1792.22 876.07 1796.78 906.349 1771.56 931.564C1746.3 956.83 1716.07 952.218 1689.35 948.158C1663.83 944.298 1639.72 940.638 1619.77 960.64C1618.32 962.094 1616.46 962.796 1614.56 962.796Z" fill="#F0D6E8" stroke="black" stroke-width="0.000533333"/>
<path d="M1480.34 64.7505C1479.67 64.7505 1479 64.4823 1478.49 63.9727L1472 57.4815C1470.98 56.4622 1470.98 54.7992 1472 53.7531C1473.02 52.707 1474.68 52.7339 1475.73 53.7531L1482.22 60.2443C1483.24 61.2636 1483.24 62.9266 1482.22 63.9727C1481.68 64.5091 1481.01 64.7505 1480.34 64.7505Z" fill="#F5F5F5" stroke="black" stroke-width="0.000533333"/>
<path d="M1392.12 152.971C1391.45 152.971 1390.78 152.703 1390.27 152.193L1383.81 145.702C1382.79 144.683 1382.79 143.02 1383.81 141.974C1384.83 140.954 1386.49 140.954 1387.54 141.974L1394 148.465C1395.02 149.484 1395.02 151.147 1394 152.193C1393.46 152.73 1392.79 152.971 1392.12 152.971Z" fill="#F5F5F5" stroke="black" stroke-width="0.000533333"/>
<path d="M1445.04 117.672C1444.37 117.672 1443.7 117.404 1443.19 116.894L1419.11 92.8073C1418.09 91.788 1418.09 90.125 1419.11 89.0789C1420.13 88.0596 1421.79 88.0596 1422.83 89.0789L1446.92 113.166C1447.94 114.185 1447.94 115.848 1446.92 116.894C1446.38 117.404 1445.71 117.672 1445.04 117.672Z" fill="#F5F5F5" stroke="black" stroke-width="0.000533333"/>
<path d="M1434.05 124.271C1433.38 124.271 1432.7 124.002 1432.2 123.493L1412.51 103.805C1411.49 102.785 1411.49 101.122 1412.51 100.076C1413.53 99.057 1415.19 99.057 1416.24 100.076L1435.92 119.764C1436.94 120.784 1436.94 122.447 1435.92 123.493C1435.39 124.002 1434.72 124.271 1434.05 124.271Z" fill="#F5F5F5" stroke="black" stroke-width="0.000533333"/>
<path d="M1451.64 106.675C1450.97 106.675 1450.3 106.407 1449.79 105.897L1430.1 86.2089C1429.08 85.1896 1429.08 83.5266 1430.1 82.4805C1431.12 81.4612 1432.79 81.4612 1433.83 82.4805L1453.52 102.168C1454.54 103.188 1454.54 104.851 1453.52 105.897C1452.98 106.407 1452.31 106.675 1451.64 106.675Z" fill="#F5F5F5" stroke="black" stroke-width="0.000533333"/>
<path d="M1396.66 167.375C1395.64 167.375 1394.64 166.999 1393.87 166.222C1392.34 164.693 1392.34 162.198 1393.87 160.642C1404.57 149.94 1402.61 137.065 1400.54 123.412C1398.37 109.116 1395.93 92.9146 1409.42 79.4227C1422.94 65.9307 1439.12 68.3716 1453.41 70.5443C1467.07 72.6096 1479.97 74.5677 1490.64 63.8654C1492.17 62.3365 1494.67 62.3365 1496.22 63.8654C1497.75 65.3943 1497.75 67.8888 1496.22 69.4445C1482.7 82.9633 1466.53 80.4956 1452.23 78.3229C1438.58 76.2576 1425.68 74.2995 1415 85.0018C1404.3 95.7042 1406.26 108.579 1408.32 122.232C1410.5 136.529 1412.94 152.73 1399.44 166.222C1398.67 166.999 1397.65 167.375 1396.66 167.375Z" fill="#F0D6E8" stroke="black" stroke-width="0.000533333"/>
<path d="M1372.57 143.288C1371.55 143.288 1370.56 142.912 1369.78 142.135C1368.25 140.606 1368.25 138.111 1369.78 136.555C1383.3 123.037 1399.5 125.504 1413.77 127.677C1427.42 129.742 1440.32 131.701 1451 120.998C1461.7 110.296 1459.74 97.4208 1457.68 83.768C1455.5 69.4714 1453.06 53.2703 1466.56 39.7784C1468.08 38.2495 1470.58 38.2495 1472.13 39.7784C1473.66 41.3073 1473.66 43.8018 1472.13 45.3576C1461.43 56.0599 1463.39 68.9349 1465.46 82.5878C1467.63 96.8844 1470.07 113.085 1456.58 126.577C1443.06 140.096 1426.88 137.628 1412.59 135.456C1398.93 133.39 1386.03 131.432 1375.36 142.135C1374.58 142.912 1373.59 143.288 1372.57 143.288Z" fill="#F0D6E8" stroke="black" stroke-width="0.000533333"/>
</svg>
