<svg width="392" height="160" viewBox="0 0 392 160" fill="none" xmlns="http://www.w3.org/2000/svg">
<path d="M350.159 27.0615C311.96 -10.1077 336.03 111.199 282.511 118.667C241.813 124.346 244.692 42.1803 203.732 43.9886C164.068 45.7397 175.474 131.611 133.516 140.572C96.4662 148.485 77 43.9886 77 43.9886M366 97.259C334.087 128.712 313.641 31.7679 271.807 32.0401C231.257 32.3038 244.274 132.61 203.732 131.611C169.859 130.776 144.647 62.4091 144.647 62.4091" stroke="#F77FA7" stroke-opacity="0.83" stroke-width="5"/>
<path d="M27 68.7273V22.1818H38.25V59.5909H57.6136V68.7273H27Z" fill="#FAE7F4"/>
<path d="M73.2784 69.3182C71.0511 69.3182 69.0739 68.947 67.3466 68.2045C65.6345 67.447 64.2784 66.3106 63.2784 64.7955C62.2936 63.2652 61.8011 61.3485 61.8011 59.0455C61.8011 57.1061 62.142 55.4697 62.8239 54.1364C63.5057 52.803 64.4451 51.7197 65.642 50.8864C66.839 50.053 68.2178 49.4242 69.7784 49C71.339 48.5606 73.0057 48.2652 74.7784 48.1136C76.7633 47.9318 78.3617 47.7424 79.5739 47.5455C80.786 47.3333 81.6648 47.0379 82.2102 46.6591C82.7708 46.2652 83.0511 45.7121 83.0511 45V44.8864C83.0511 43.7197 82.6496 42.8182 81.8466 42.1818C81.0436 41.5455 79.9602 41.2273 78.5966 41.2273C77.1269 41.2273 75.9451 41.5455 75.0511 42.1818C74.1572 42.8182 73.589 43.697 73.3466 44.8182L63.0966 44.4545C63.3996 42.3333 64.1799 40.4394 65.4375 38.7727C66.7102 37.0909 68.4527 35.7727 70.6648 34.8182C72.892 33.8485 75.5663 33.3636 78.6875 33.3636C80.9148 33.3636 82.9678 33.6288 84.8466 34.1591C86.7254 34.6742 88.3617 35.4318 89.7557 36.4318C91.1496 37.4167 92.2254 38.6288 92.983 40.0682C93.7557 41.5076 94.142 43.1515 94.142 45V68.7273H83.6875V63.8636H83.4148C82.7936 65.0455 81.9981 66.0455 81.0284 66.8636C80.0739 67.6818 78.9451 68.2955 77.642 68.7045C76.3542 69.1136 74.8996 69.3182 73.2784 69.3182ZM76.7102 62.0455C77.9072 62.0455 78.983 61.803 79.9375 61.3182C80.9072 60.8333 81.6799 60.1667 82.2557 59.3182C82.8314 58.4545 83.1193 57.4545 83.1193 56.3182V53C82.8011 53.1667 82.4148 53.3182 81.9602 53.4545C81.5208 53.5909 81.036 53.7197 80.5057 53.8409C79.9754 53.9621 79.4299 54.0682 78.8693 54.1591C78.3087 54.25 77.7708 54.3333 77.2557 54.4091C76.2102 54.5758 75.3163 54.8333 74.5739 55.1818C73.8466 55.5303 73.286 55.9848 72.892 56.5455C72.5133 57.0909 72.3239 57.7424 72.3239 58.5C72.3239 59.6515 72.733 60.5303 73.5511 61.1364C74.3845 61.7424 75.4375 62.0455 76.7102 62.0455Z" fill="#FAE7F4"/>
<path d="M114.688 68.7273V22.1818H133.915C137.4 22.1818 140.407 22.8636 142.938 24.2273C145.483 25.5758 147.445 27.4621 148.824 29.8864C150.203 32.2955 150.892 35.0985 150.892 38.2955C150.892 41.5076 150.188 44.3182 148.778 46.7273C147.384 49.1212 145.392 50.9773 142.801 52.2955C140.21 53.6136 137.134 54.2727 133.574 54.2727H121.71V45.4091H131.483C133.18 45.4091 134.597 45.1136 135.733 44.5227C136.884 43.9318 137.756 43.1061 138.347 42.0455C138.938 40.9697 139.233 39.7197 139.233 38.2955C139.233 36.8561 138.938 35.6136 138.347 34.5682C137.756 33.5076 136.884 32.6894 135.733 32.1136C134.581 31.5379 133.165 31.25 131.483 31.25H125.938V68.7273H114.688Z" fill="#FAE7F4"/>
<path d="M156.438 68.7273V33.8182H167.233V40.1818H167.597C168.233 37.8788 169.271 36.1667 170.71 35.0455C172.15 33.9091 173.824 33.3409 175.733 33.3409C176.248 33.3409 176.778 33.3788 177.324 33.4545C177.869 33.5152 178.377 33.6136 178.847 33.75V43.4091C178.316 43.2273 177.619 43.0833 176.756 42.9773C175.907 42.8712 175.15 42.8182 174.483 42.8182C173.165 42.8182 171.975 43.1136 170.915 43.7045C169.869 44.2803 169.044 45.0909 168.438 46.1364C167.847 47.1667 167.551 48.3788 167.551 49.7727V68.7273H156.438Z" fill="#FAE7F4"/>
<path d="M197.858 69.3864C194.191 69.3864 191.04 68.6364 188.403 67.1364C185.782 65.6212 183.759 63.5152 182.335 60.8182C180.926 58.1061 180.222 54.9621 180.222 51.3864C180.222 47.7955 180.926 44.6515 182.335 41.9545C183.759 39.2424 185.782 37.1364 188.403 35.6364C191.04 34.1212 194.191 33.3636 197.858 33.3636C201.525 33.3636 204.669 34.1212 207.29 35.6364C209.926 37.1364 211.949 39.2424 213.358 41.9545C214.782 44.6515 215.494 47.7955 215.494 51.3864C215.494 54.9621 214.782 58.1061 213.358 60.8182C211.949 63.5152 209.926 65.6212 207.29 67.1364C204.669 68.6364 201.525 69.3864 197.858 69.3864ZM197.926 61C199.259 61 200.388 60.5909 201.312 59.7727C202.237 58.9545 202.941 57.8182 203.426 56.3636C203.926 54.9091 204.176 53.2273 204.176 51.3182C204.176 49.3788 203.926 47.6818 203.426 46.2273C202.941 44.7727 202.237 43.6364 201.312 42.8182C200.388 42 199.259 41.5909 197.926 41.5909C196.547 41.5909 195.381 42 194.426 42.8182C193.487 43.6364 192.767 44.7727 192.267 46.2273C191.782 47.6818 191.54 49.3788 191.54 51.3182C191.54 53.2273 191.782 54.9091 192.267 56.3636C192.767 57.8182 193.487 58.9545 194.426 59.7727C195.381 60.5909 196.547 61 197.926 61Z" fill="#FAE7F4"/>
<path d="M241.028 33.8182V42H218.574V33.8182H241.028ZM223.256 68.7273V32.0455C223.256 29.3485 223.763 27.1136 224.778 25.3409C225.794 23.553 227.203 22.2197 229.006 21.3409C230.809 20.447 232.892 20 235.256 20C236.801 20 238.256 20.1212 239.619 20.3636C240.998 20.5909 242.021 20.7955 242.688 20.9773L240.915 29.1136C240.506 28.9773 240.006 28.8636 239.415 28.7727C238.839 28.6818 238.294 28.6364 237.778 28.6364C236.475 28.6364 235.581 28.9242 235.097 29.5C234.612 30.0758 234.369 30.8636 234.369 31.8636V68.7273H223.256Z" fill="#FAE7F4"/>
<path d="M261.568 69.3864C257.917 69.3864 254.765 68.6667 252.114 67.2273C249.477 65.7727 247.447 63.7046 246.023 61.0227C244.614 58.3258 243.909 55.1212 243.909 51.4091C243.909 47.803 244.621 44.6515 246.045 41.9545C247.47 39.2424 249.477 37.1364 252.068 35.6364C254.659 34.1212 257.712 33.3636 261.227 33.3636C263.712 33.3636 265.985 33.75 268.045 34.5227C270.106 35.2955 271.886 36.4394 273.386 37.9545C274.886 39.4697 276.053 41.3409 276.886 43.5682C277.72 45.7803 278.136 48.3182 278.136 51.1818V53.9545H247.795V47.5H267.795C267.78 46.3182 267.5 45.2652 266.955 44.3409C266.409 43.4167 265.659 42.697 264.705 42.1818C263.765 41.6515 262.682 41.3864 261.455 41.3864C260.212 41.3864 259.098 41.6667 258.114 42.2273C257.129 42.7727 256.348 43.5227 255.773 44.4773C255.197 45.4167 254.894 46.4849 254.864 47.6818V54.25C254.864 55.6742 255.144 56.9242 255.705 58C256.265 59.0606 257.061 59.8864 258.091 60.4773C259.121 61.0682 260.348 61.3636 261.773 61.3636C262.758 61.3636 263.652 61.2273 264.455 60.9545C265.258 60.6818 265.947 60.2803 266.523 59.75C267.098 59.2197 267.53 58.5682 267.818 57.7955L278.023 58.0909C277.598 60.3788 276.667 62.3712 275.227 64.0682C273.803 65.75 271.932 67.0606 269.614 68C267.295 68.9242 264.614 69.3864 261.568 69.3864Z" fill="#FAE7F4"/>
<path d="M135.477 126.318V79.7727H154.886C158.371 79.7727 161.288 80.2651 163.636 81.25C166 82.2348 167.773 83.6136 168.955 85.3864C170.152 87.1591 170.75 89.2121 170.75 91.5454C170.75 93.3182 170.379 94.9015 169.636 96.2954C168.894 97.6742 167.871 98.8182 166.568 99.7273C165.265 100.636 163.758 101.273 162.045 101.636V102.091C163.924 102.182 165.659 102.689 167.25 103.614C168.856 104.538 170.144 105.826 171.114 107.477C172.083 109.114 172.568 111.053 172.568 113.295C172.568 115.795 171.932 118.03 170.659 120C169.386 121.955 167.545 123.5 165.136 124.636C162.727 125.758 159.803 126.318 156.364 126.318H135.477ZM146.727 117.25H153.682C156.121 117.25 157.917 116.788 159.068 115.864C160.235 114.939 160.818 113.652 160.818 112C160.818 110.803 160.538 109.773 159.977 108.909C159.417 108.03 158.621 107.356 157.591 106.886C156.561 106.402 155.326 106.159 153.886 106.159H146.727V117.25ZM146.727 98.9091H152.955C154.182 98.9091 155.273 98.7045 156.227 98.2954C157.182 97.8864 157.924 97.2954 158.455 96.5227C159 95.75 159.273 94.8182 159.273 93.7273C159.273 92.1667 158.72 90.9394 157.614 90.0454C156.508 89.1515 155.015 88.7045 153.136 88.7045H146.727V98.9091Z" fill="#FAE7F4"/>
<path d="M177.977 126.318V91.4091H189.091V126.318H177.977ZM183.545 87.3409C181.985 87.3409 180.644 86.8258 179.523 85.7954C178.402 84.75 177.841 83.4924 177.841 82.0227C177.841 80.5682 178.402 79.3257 179.523 78.2954C180.644 77.25 181.985 76.7273 183.545 76.7273C185.121 76.7273 186.462 77.25 187.568 78.2954C188.689 79.3257 189.25 80.5682 189.25 82.0227C189.25 83.4924 188.689 84.75 187.568 85.7954C186.462 86.8258 185.121 87.3409 183.545 87.3409Z" fill="#FAE7F4"/>
<path d="M212.46 126.977C208.794 126.977 205.642 126.227 203.006 124.727C200.384 123.212 198.362 121.106 196.938 118.409C195.528 115.697 194.824 112.553 194.824 108.977C194.824 105.386 195.528 102.242 196.938 99.5454C198.362 96.8333 200.384 94.7273 203.006 93.2273C205.642 91.7121 208.794 90.9545 212.46 90.9545C216.127 90.9545 219.271 91.7121 221.892 93.2273C224.528 94.7273 226.551 96.8333 227.96 99.5454C229.384 102.242 230.097 105.386 230.097 108.977C230.097 112.553 229.384 115.697 227.96 118.409C226.551 121.106 224.528 123.212 221.892 124.727C219.271 126.227 216.127 126.977 212.46 126.977ZM212.528 118.591C213.862 118.591 214.991 118.182 215.915 117.364C216.839 116.545 217.544 115.409 218.028 113.955C218.528 112.5 218.778 110.818 218.778 108.909C218.778 106.97 218.528 105.273 218.028 103.818C217.544 102.364 216.839 101.227 215.915 100.409C214.991 99.5909 213.862 99.1818 212.528 99.1818C211.15 99.1818 209.983 99.5909 209.028 100.409C208.089 101.227 207.369 102.364 206.869 103.818C206.384 105.273 206.142 106.97 206.142 108.909C206.142 110.818 206.384 112.5 206.869 113.955C207.369 115.409 208.089 116.545 209.028 117.364C209.983 118.182 211.15 118.591 212.528 118.591ZM208.619 86.9773L213.21 76.7273H223.051L216.188 86.9773H208.619Z" fill="#FAE7F4"/>
<path d="M246.903 79.7727V126.318H235.79V79.7727H246.903Z" fill="#FAE7F4"/>
<path d="M270.273 126.977C266.606 126.977 263.455 126.227 260.818 124.727C258.197 123.212 256.174 121.106 254.75 118.409C253.341 115.697 252.636 112.553 252.636 108.977C252.636 105.386 253.341 102.242 254.75 99.5454C256.174 96.8333 258.197 94.7273 260.818 93.2273C263.455 91.7121 266.606 90.9545 270.273 90.9545C273.939 90.9545 277.083 91.7121 279.705 93.2273C282.341 94.7273 284.364 96.8333 285.773 99.5454C287.197 102.242 287.909 105.386 287.909 108.977C287.909 112.553 287.197 115.697 285.773 118.409C284.364 121.106 282.341 123.212 279.705 124.727C277.083 126.227 273.939 126.977 270.273 126.977ZM270.341 118.591C271.674 118.591 272.803 118.182 273.727 117.364C274.652 116.545 275.356 115.409 275.841 113.955C276.341 112.5 276.591 110.818 276.591 108.909C276.591 106.97 276.341 105.273 275.841 103.818C275.356 102.364 274.652 101.227 273.727 100.409C272.803 99.5909 271.674 99.1818 270.341 99.1818C268.962 99.1818 267.795 99.5909 266.841 100.409C265.902 101.227 265.182 102.364 264.682 103.818C264.197 105.273 263.955 106.97 263.955 108.909C263.955 110.818 264.197 112.5 264.682 113.955C265.182 115.409 265.902 116.545 266.841 117.364C267.795 118.182 268.962 118.591 270.341 118.591Z" fill="#FAE7F4"/>
<path d="M309.875 140.136C306.557 140.136 303.716 139.674 301.352 138.75C298.989 137.826 297.133 136.561 295.784 134.955C294.436 133.348 293.625 131.53 293.352 129.5L303.875 128.909C304.072 129.621 304.436 130.242 304.966 130.773C305.511 131.303 306.216 131.712 307.08 132C307.958 132.288 308.989 132.432 310.17 132.432C312.034 132.432 313.572 131.977 314.784 131.068C316.011 130.174 316.625 128.606 316.625 126.364V120.227H316.239C315.799 121.303 315.133 122.265 314.239 123.114C313.345 123.962 312.231 124.629 310.898 125.114C309.58 125.598 308.064 125.841 306.352 125.841C303.807 125.841 301.473 125.25 299.352 124.068C297.246 122.871 295.557 121.023 294.284 118.523C293.027 116.008 292.398 112.773 292.398 108.818C292.398 104.742 293.049 101.386 294.352 98.75C295.655 96.0985 297.36 94.1364 299.466 92.8636C301.587 91.5909 303.867 90.9545 306.307 90.9545C308.14 90.9545 309.708 91.2727 311.011 91.9091C312.33 92.5303 313.413 93.3333 314.261 94.3182C315.11 95.303 315.754 96.3258 316.193 97.3864H316.511V91.4091H327.58V126.455C327.58 129.409 326.837 131.902 325.352 133.932C323.867 135.962 321.792 137.5 319.125 138.545C316.458 139.606 313.375 140.136 309.875 140.136ZM310.216 117.75C311.564 117.75 312.716 117.394 313.67 116.682C314.625 115.97 315.36 114.947 315.875 113.614C316.39 112.28 316.648 110.682 316.648 108.818C316.648 106.924 316.39 105.295 315.875 103.932C315.375 102.553 314.64 101.492 313.67 100.75C312.716 100.008 311.564 99.6364 310.216 99.6364C308.837 99.6364 307.67 100.015 306.716 100.773C305.761 101.53 305.034 102.598 304.534 103.977C304.049 105.341 303.807 106.955 303.807 108.818C303.807 110.682 304.057 112.28 304.557 113.614C305.057 114.947 305.777 115.97 306.716 116.682C307.67 117.394 308.837 117.75 310.216 117.75Z" fill="#FAE7F4"/>
<path d="M344.506 126.909C342.278 126.909 340.301 126.538 338.574 125.795C336.862 125.038 335.506 123.902 334.506 122.386C333.521 120.856 333.028 118.939 333.028 116.636C333.028 114.697 333.369 113.061 334.051 111.727C334.733 110.394 335.672 109.311 336.869 108.477C338.066 107.644 339.445 107.015 341.006 106.591C342.566 106.152 344.233 105.856 346.006 105.705C347.991 105.523 349.589 105.333 350.801 105.136C352.013 104.924 352.892 104.629 353.438 104.25C353.998 103.856 354.278 103.303 354.278 102.591V102.477C354.278 101.311 353.877 100.409 353.074 99.7727C352.271 99.1364 351.188 98.8182 349.824 98.8182C348.354 98.8182 347.172 99.1364 346.278 99.7727C345.384 100.409 344.816 101.288 344.574 102.409L334.324 102.045C334.627 99.9242 335.407 98.0303 336.665 96.3636C337.938 94.6818 339.68 93.3636 341.892 92.4091C344.119 91.4394 346.794 90.9545 349.915 90.9545C352.142 90.9545 354.195 91.2197 356.074 91.75C357.953 92.2651 359.589 93.0227 360.983 94.0227C362.377 95.0076 363.453 96.2197 364.21 97.6591C364.983 99.0985 365.369 100.742 365.369 102.591V126.318H354.915V121.455H354.642C354.021 122.636 353.225 123.636 352.256 124.455C351.301 125.273 350.172 125.886 348.869 126.295C347.581 126.705 346.127 126.909 344.506 126.909ZM347.938 119.636C349.134 119.636 350.21 119.394 351.165 118.909C352.134 118.424 352.907 117.758 353.483 116.909C354.059 116.045 354.347 115.045 354.347 113.909V110.591C354.028 110.758 353.642 110.909 353.188 111.045C352.748 111.182 352.263 111.311 351.733 111.432C351.203 111.553 350.657 111.659 350.097 111.75C349.536 111.841 348.998 111.924 348.483 112C347.438 112.167 346.544 112.424 345.801 112.773C345.074 113.121 344.513 113.576 344.119 114.136C343.741 114.682 343.551 115.333 343.551 116.091C343.551 117.242 343.96 118.121 344.778 118.727C345.612 119.333 346.665 119.636 347.938 119.636Z" fill="#FAE7F4"/>
</svg>
