<svg width="512" height="512" viewBox="0 0 512 512" fill="none" xmlns="http://www.w3.org/2000/svg">
<circle cx="256" cy="256" r="186" fill="#ECA5C1"/>
<path d="M408.159 214.062C369.96 176.892 394.03 298.199 340.511 305.667C299.813 311.346 302.692 229.18 261.732 230.989C222.068 232.74 233.474 318.611 191.516 327.572C154.466 335.485 135 230.989 135 230.989M424 284.259C392.087 315.712 371.641 218.768 329.807 219.04C289.257 219.304 302.274 319.61 261.732 318.611C227.859 317.776 202.647 249.409 202.647 249.409" stroke="#C2C5EB" stroke-opacity="0.83" stroke-width="5"/>
<path d="M85 255.727V209.182H96.25V246.591H115.614V255.727H85Z" fill="#DB4F7D"/>
<path d="M131.278 256.318C129.051 256.318 127.074 255.947 125.347 255.205C123.634 254.447 122.278 253.311 121.278 251.795C120.294 250.265 119.801 248.348 119.801 246.045C119.801 244.106 120.142 242.47 120.824 241.136C121.506 239.803 122.445 238.72 123.642 237.886C124.839 237.053 126.218 236.424 127.778 236C129.339 235.561 131.006 235.265 132.778 235.114C134.763 234.932 136.362 234.742 137.574 234.545C138.786 234.333 139.665 234.038 140.21 233.659C140.771 233.265 141.051 232.712 141.051 232V231.886C141.051 230.72 140.65 229.818 139.847 229.182C139.044 228.545 137.96 228.227 136.597 228.227C135.127 228.227 133.945 228.545 133.051 229.182C132.157 229.818 131.589 230.697 131.347 231.818L121.097 231.455C121.4 229.333 122.18 227.439 123.438 225.773C124.71 224.091 126.453 222.773 128.665 221.818C130.892 220.848 133.566 220.364 136.688 220.364C138.915 220.364 140.968 220.629 142.847 221.159C144.725 221.674 146.362 222.432 147.756 223.432C149.15 224.417 150.225 225.629 150.983 227.068C151.756 228.508 152.142 230.152 152.142 232V255.727H141.688V250.864H141.415C140.794 252.045 139.998 253.045 139.028 253.864C138.074 254.682 136.945 255.295 135.642 255.705C134.354 256.114 132.9 256.318 131.278 256.318ZM134.71 249.045C135.907 249.045 136.983 248.803 137.938 248.318C138.907 247.833 139.68 247.167 140.256 246.318C140.831 245.455 141.119 244.455 141.119 243.318V240C140.801 240.167 140.415 240.318 139.96 240.455C139.521 240.591 139.036 240.72 138.506 240.841C137.975 240.962 137.43 241.068 136.869 241.159C136.309 241.25 135.771 241.333 135.256 241.409C134.21 241.576 133.316 241.833 132.574 242.182C131.847 242.53 131.286 242.985 130.892 243.545C130.513 244.091 130.324 244.742 130.324 245.5C130.324 246.652 130.733 247.53 131.551 248.136C132.384 248.742 133.438 249.045 134.71 249.045Z" fill="#DB4F7D"/>
<path d="M172.688 255.727V209.182H191.915C195.4 209.182 198.407 209.864 200.938 211.227C203.483 212.576 205.445 214.462 206.824 216.886C208.203 219.295 208.892 222.098 208.892 225.295C208.892 228.508 208.188 231.318 206.778 233.727C205.384 236.121 203.392 237.977 200.801 239.295C198.21 240.614 195.134 241.273 191.574 241.273H179.71V232.409H189.483C191.18 232.409 192.597 232.114 193.733 231.523C194.884 230.932 195.756 230.106 196.347 229.045C196.938 227.97 197.233 226.72 197.233 225.295C197.233 223.856 196.938 222.614 196.347 221.568C195.756 220.508 194.884 219.689 193.733 219.114C192.581 218.538 191.165 218.25 189.483 218.25H183.938V255.727H172.688Z" fill="#DB4F7D"/>
<path d="M214.438 255.727V220.818H225.233V227.182H225.597C226.233 224.879 227.271 223.167 228.71 222.045C230.15 220.909 231.824 220.341 233.733 220.341C234.248 220.341 234.778 220.379 235.324 220.455C235.869 220.515 236.377 220.614 236.847 220.75V230.409C236.316 230.227 235.619 230.083 234.756 229.977C233.907 229.871 233.15 229.818 232.483 229.818C231.165 229.818 229.975 230.114 228.915 230.705C227.869 231.28 227.044 232.091 226.438 233.136C225.847 234.167 225.551 235.379 225.551 236.773V255.727H214.438Z" fill="#DB4F7D"/>
<path d="M255.858 256.386C252.191 256.386 249.04 255.636 246.403 254.136C243.782 252.621 241.759 250.515 240.335 247.818C238.926 245.106 238.222 241.962 238.222 238.386C238.222 234.795 238.926 231.652 240.335 228.955C241.759 226.242 243.782 224.136 246.403 222.636C249.04 221.121 252.191 220.364 255.858 220.364C259.525 220.364 262.669 221.121 265.29 222.636C267.926 224.136 269.949 226.242 271.358 228.955C272.782 231.652 273.494 234.795 273.494 238.386C273.494 241.962 272.782 245.106 271.358 247.818C269.949 250.515 267.926 252.621 265.29 254.136C262.669 255.636 259.525 256.386 255.858 256.386ZM255.926 248C257.259 248 258.388 247.591 259.312 246.773C260.237 245.955 260.941 244.818 261.426 243.364C261.926 241.909 262.176 240.227 262.176 238.318C262.176 236.379 261.926 234.682 261.426 233.227C260.941 231.773 260.237 230.636 259.312 229.818C258.388 229 257.259 228.591 255.926 228.591C254.547 228.591 253.381 229 252.426 229.818C251.487 230.636 250.767 231.773 250.267 233.227C249.782 234.682 249.54 236.379 249.54 238.318C249.54 240.227 249.782 241.909 250.267 243.364C250.767 244.818 251.487 245.955 252.426 246.773C253.381 247.591 254.547 248 255.926 248Z" fill="#DB4F7D"/>
<path d="M299.028 220.818V229H276.574V220.818H299.028ZM281.256 255.727V219.045C281.256 216.348 281.763 214.114 282.778 212.341C283.794 210.553 285.203 209.22 287.006 208.341C288.809 207.447 290.892 207 293.256 207C294.801 207 296.256 207.121 297.619 207.364C298.998 207.591 300.021 207.795 300.688 207.977L298.915 216.114C298.506 215.977 298.006 215.864 297.415 215.773C296.839 215.682 296.294 215.636 295.778 215.636C294.475 215.636 293.581 215.924 293.097 216.5C292.612 217.076 292.369 217.864 292.369 218.864V255.727H281.256Z" fill="#DB4F7D"/>
<path d="M319.568 256.386C315.917 256.386 312.765 255.667 310.114 254.227C307.477 252.773 305.447 250.705 304.023 248.023C302.614 245.326 301.909 242.121 301.909 238.409C301.909 234.803 302.621 231.652 304.045 228.955C305.47 226.242 307.477 224.136 310.068 222.636C312.659 221.121 315.712 220.364 319.227 220.364C321.712 220.364 323.985 220.75 326.045 221.523C328.106 222.295 329.886 223.439 331.386 224.955C332.886 226.47 334.053 228.341 334.886 230.568C335.72 232.78 336.136 235.318 336.136 238.182V240.955H305.795V234.5H325.795C325.78 233.318 325.5 232.265 324.955 231.341C324.409 230.417 323.659 229.697 322.705 229.182C321.765 228.652 320.682 228.386 319.455 228.386C318.212 228.386 317.098 228.667 316.114 229.227C315.129 229.773 314.348 230.523 313.773 231.477C313.197 232.417 312.894 233.485 312.864 234.682V241.25C312.864 242.674 313.144 243.924 313.705 245C314.265 246.061 315.061 246.886 316.091 247.477C317.121 248.068 318.348 248.364 319.773 248.364C320.758 248.364 321.652 248.227 322.455 247.955C323.258 247.682 323.947 247.28 324.523 246.75C325.098 246.22 325.53 245.568 325.818 244.795L336.023 245.091C335.598 247.379 334.667 249.371 333.227 251.068C331.803 252.75 329.932 254.061 327.614 255C325.295 255.924 322.614 256.386 319.568 256.386Z" fill="#DB4F7D"/>
<path d="M193.477 313.318V266.773H212.886C216.371 266.773 219.288 267.265 221.636 268.25C224 269.235 225.773 270.614 226.955 272.386C228.152 274.159 228.75 276.212 228.75 278.545C228.75 280.318 228.379 281.902 227.636 283.295C226.894 284.674 225.871 285.818 224.568 286.727C223.265 287.636 221.758 288.273 220.045 288.636V289.091C221.924 289.182 223.659 289.689 225.25 290.614C226.856 291.538 228.144 292.826 229.114 294.477C230.083 296.114 230.568 298.053 230.568 300.295C230.568 302.795 229.932 305.03 228.659 307C227.386 308.955 225.545 310.5 223.136 311.636C220.727 312.758 217.803 313.318 214.364 313.318H193.477ZM204.727 304.25H211.682C214.121 304.25 215.917 303.788 217.068 302.864C218.235 301.939 218.818 300.652 218.818 299C218.818 297.803 218.538 296.773 217.977 295.909C217.417 295.03 216.621 294.356 215.591 293.886C214.561 293.402 213.326 293.159 211.886 293.159H204.727V304.25ZM204.727 285.909H210.955C212.182 285.909 213.273 285.705 214.227 285.295C215.182 284.886 215.924 284.295 216.455 283.523C217 282.75 217.273 281.818 217.273 280.727C217.273 279.167 216.72 277.939 215.614 277.045C214.508 276.152 213.015 275.705 211.136 275.705H204.727V285.909Z" fill="#DB4F7D"/>
<path d="M235.977 313.318V278.409H247.091V313.318H235.977ZM241.545 274.341C239.985 274.341 238.644 273.826 237.523 272.795C236.402 271.75 235.841 270.492 235.841 269.023C235.841 267.568 236.402 266.326 237.523 265.295C238.644 264.25 239.985 263.727 241.545 263.727C243.121 263.727 244.462 264.25 245.568 265.295C246.689 266.326 247.25 267.568 247.25 269.023C247.25 270.492 246.689 271.75 245.568 272.795C244.462 273.826 243.121 274.341 241.545 274.341Z" fill="#DB4F7D"/>
<path d="M270.46 313.977C266.794 313.977 263.642 313.227 261.006 311.727C258.384 310.212 256.362 308.106 254.938 305.409C253.528 302.697 252.824 299.553 252.824 295.977C252.824 292.386 253.528 289.242 254.938 286.545C256.362 283.833 258.384 281.727 261.006 280.227C263.642 278.712 266.794 277.955 270.46 277.955C274.127 277.955 277.271 278.712 279.892 280.227C282.528 281.727 284.551 283.833 285.96 286.545C287.384 289.242 288.097 292.386 288.097 295.977C288.097 299.553 287.384 302.697 285.96 305.409C284.551 308.106 282.528 310.212 279.892 311.727C277.271 313.227 274.127 313.977 270.46 313.977ZM270.528 305.591C271.862 305.591 272.991 305.182 273.915 304.364C274.839 303.545 275.544 302.409 276.028 300.955C276.528 299.5 276.778 297.818 276.778 295.909C276.778 293.97 276.528 292.273 276.028 290.818C275.544 289.364 274.839 288.227 273.915 287.409C272.991 286.591 271.862 286.182 270.528 286.182C269.15 286.182 267.983 286.591 267.028 287.409C266.089 288.227 265.369 289.364 264.869 290.818C264.384 292.273 264.142 293.97 264.142 295.909C264.142 297.818 264.384 299.5 264.869 300.955C265.369 302.409 266.089 303.545 267.028 304.364C267.983 305.182 269.15 305.591 270.528 305.591ZM266.619 273.977L271.21 263.727H281.051L274.188 273.977H266.619Z" fill="#DB4F7D"/>
<path d="M304.903 266.773V313.318H293.79V266.773H304.903Z" fill="#DB4F7D"/>
<path d="M328.273 313.977C324.606 313.977 321.455 313.227 318.818 311.727C316.197 310.212 314.174 308.106 312.75 305.409C311.341 302.697 310.636 299.553 310.636 295.977C310.636 292.386 311.341 289.242 312.75 286.545C314.174 283.833 316.197 281.727 318.818 280.227C321.455 278.712 324.606 277.955 328.273 277.955C331.939 277.955 335.083 278.712 337.705 280.227C340.341 281.727 342.364 283.833 343.773 286.545C345.197 289.242 345.909 292.386 345.909 295.977C345.909 299.553 345.197 302.697 343.773 305.409C342.364 308.106 340.341 310.212 337.705 311.727C335.083 313.227 331.939 313.977 328.273 313.977ZM328.341 305.591C329.674 305.591 330.803 305.182 331.727 304.364C332.652 303.545 333.356 302.409 333.841 300.955C334.341 299.5 334.591 297.818 334.591 295.909C334.591 293.97 334.341 292.273 333.841 290.818C333.356 289.364 332.652 288.227 331.727 287.409C330.803 286.591 329.674 286.182 328.341 286.182C326.962 286.182 325.795 286.591 324.841 287.409C323.902 288.227 323.182 289.364 322.682 290.818C322.197 292.273 321.955 293.97 321.955 295.909C321.955 297.818 322.197 299.5 322.682 300.955C323.182 302.409 323.902 303.545 324.841 304.364C325.795 305.182 326.962 305.591 328.341 305.591Z" fill="#DB4F7D"/>
<path d="M367.875 327.136C364.557 327.136 361.716 326.674 359.352 325.75C356.989 324.826 355.133 323.561 353.784 321.955C352.436 320.348 351.625 318.53 351.352 316.5L361.875 315.909C362.072 316.621 362.436 317.242 362.966 317.773C363.511 318.303 364.216 318.712 365.08 319C365.958 319.288 366.989 319.432 368.17 319.432C370.034 319.432 371.572 318.977 372.784 318.068C374.011 317.174 374.625 315.606 374.625 313.364V307.227H374.239C373.799 308.303 373.133 309.265 372.239 310.114C371.345 310.962 370.231 311.629 368.898 312.114C367.58 312.598 366.064 312.841 364.352 312.841C361.807 312.841 359.473 312.25 357.352 311.068C355.246 309.871 353.557 308.023 352.284 305.523C351.027 303.008 350.398 299.773 350.398 295.818C350.398 291.742 351.049 288.386 352.352 285.75C353.655 283.098 355.36 281.136 357.466 279.864C359.587 278.591 361.867 277.955 364.307 277.955C366.14 277.955 367.708 278.273 369.011 278.909C370.33 279.53 371.413 280.333 372.261 281.318C373.11 282.303 373.754 283.326 374.193 284.386H374.511V278.409H385.58V313.455C385.58 316.409 384.837 318.902 383.352 320.932C381.867 322.962 379.792 324.5 377.125 325.545C374.458 326.606 371.375 327.136 367.875 327.136ZM368.216 304.75C369.564 304.75 370.716 304.394 371.67 303.682C372.625 302.97 373.36 301.947 373.875 300.614C374.39 299.28 374.648 297.682 374.648 295.818C374.648 293.924 374.39 292.295 373.875 290.932C373.375 289.553 372.64 288.492 371.67 287.75C370.716 287.008 369.564 286.636 368.216 286.636C366.837 286.636 365.67 287.015 364.716 287.773C363.761 288.53 363.034 289.598 362.534 290.977C362.049 292.341 361.807 293.955 361.807 295.818C361.807 297.682 362.057 299.28 362.557 300.614C363.057 301.947 363.777 302.97 364.716 303.682C365.67 304.394 366.837 304.75 368.216 304.75Z" fill="#DB4F7D"/>
<path d="M402.506 313.909C400.278 313.909 398.301 313.538 396.574 312.795C394.862 312.038 393.506 310.902 392.506 309.386C391.521 307.856 391.028 305.939 391.028 303.636C391.028 301.697 391.369 300.061 392.051 298.727C392.733 297.394 393.672 296.311 394.869 295.477C396.066 294.644 397.445 294.015 399.006 293.591C400.566 293.152 402.233 292.856 404.006 292.705C405.991 292.523 407.589 292.333 408.801 292.136C410.013 291.924 410.892 291.629 411.438 291.25C411.998 290.856 412.278 290.303 412.278 289.591V289.477C412.278 288.311 411.877 287.409 411.074 286.773C410.271 286.136 409.188 285.818 407.824 285.818C406.354 285.818 405.172 286.136 404.278 286.773C403.384 287.409 402.816 288.288 402.574 289.409L392.324 289.045C392.627 286.924 393.407 285.03 394.665 283.364C395.938 281.682 397.68 280.364 399.892 279.409C402.119 278.439 404.794 277.955 407.915 277.955C410.142 277.955 412.195 278.22 414.074 278.75C415.953 279.265 417.589 280.023 418.983 281.023C420.377 282.008 421.453 283.22 422.21 284.659C422.983 286.098 423.369 287.742 423.369 289.591V313.318H412.915V308.455H412.642C412.021 309.636 411.225 310.636 410.256 311.455C409.301 312.273 408.172 312.886 406.869 313.295C405.581 313.705 404.127 313.909 402.506 313.909ZM405.938 306.636C407.134 306.636 408.21 306.394 409.165 305.909C410.134 305.424 410.907 304.758 411.483 303.909C412.059 303.045 412.347 302.045 412.347 300.909V297.591C412.028 297.758 411.642 297.909 411.188 298.045C410.748 298.182 410.263 298.311 409.733 298.432C409.203 298.553 408.657 298.659 408.097 298.75C407.536 298.841 406.998 298.924 406.483 299C405.438 299.167 404.544 299.424 403.801 299.773C403.074 300.121 402.513 300.576 402.119 301.136C401.741 301.682 401.551 302.333 401.551 303.091C401.551 304.242 401.96 305.121 402.778 305.727C403.612 306.333 404.665 306.636 405.938 306.636Z" fill="#DB4F7D"/>
<path d="M423 394L425.036 399.162C425.224 399.638 425.318 399.876 425.461 400.077C425.589 400.255 425.745 400.411 425.923 400.539C426.124 400.682 426.362 400.776 426.839 400.964L432 403L426.839 405.036C426.362 405.224 426.124 405.318 425.923 405.461C425.745 405.589 425.589 405.745 425.461 405.923C425.318 406.124 425.224 406.362 425.036 406.839L423 412L420.964 406.839C420.776 406.362 420.682 406.124 420.539 405.923C420.411 405.745 420.255 405.589 420.077 405.461C419.876 405.318 419.638 405.224 419.162 405.036L414 403L419.162 400.964C419.638 400.776 419.876 400.682 420.077 400.539C420.255 400.411 420.411 400.255 420.539 400.077C420.682 399.876 420.776 399.638 420.964 399.162L423 394Z" fill="#C2C5EB" stroke="#C2C5EB" stroke-width="2" stroke-linecap="round" stroke-linejoin="round"/>
<path d="M492 442L494.036 447.162C494.224 447.638 494.318 447.876 494.461 448.077C494.589 448.255 494.745 448.411 494.923 448.539C495.124 448.682 495.362 448.776 495.839 448.964L501 451L495.839 453.036C495.362 453.224 495.124 453.318 494.923 453.461C494.745 453.589 494.589 453.745 494.461 453.923C494.318 454.124 494.224 454.362 494.036 454.839L492 460L489.964 454.839C489.776 454.362 489.682 454.124 489.539 453.923C489.411 453.745 489.255 453.589 489.077 453.461C488.876 453.318 488.638 453.224 488.162 453.036L483 451L488.162 448.964C488.638 448.776 488.876 448.682 489.077 448.539C489.255 448.411 489.411 448.255 489.539 448.077C489.682 447.876 489.776 447.638 489.964 447.162L492 442Z" fill="#C2C5EB" stroke="#C2C5EB" stroke-width="2" stroke-linecap="round" stroke-linejoin="round"/>
<path d="M48 223L50.0357 228.162C50.2236 228.638 50.3175 228.876 50.4614 229.077C50.5889 229.255 50.7448 229.411 50.9229 229.539C51.1238 229.682 51.362 229.776 51.8385 229.964L57 232L51.8385 234.036C51.362 234.224 51.1238 234.318 50.9229 234.461C50.7448 234.589 50.5889 234.745 50.4614 234.923C50.3175 235.124 50.2236 235.362 50.0357 235.839L48 241L45.9643 235.839C45.7764 235.362 45.6825 235.124 45.5386 234.923C45.4111 234.745 45.2552 234.589 45.0771 234.461C44.8762 234.318 44.638 234.224 44.1615 234.036L39 232L44.1615 229.964C44.638 229.776 44.8762 229.682 45.0771 229.539C45.2552 229.411 45.4111 229.255 45.5386 229.077C45.6825 228.876 45.7764 228.638 45.9643 228.162L48 223Z" fill="#C2C5EB" stroke="#C2C5EB" stroke-width="2" stroke-linecap="round" stroke-linejoin="round"/>
<path d="M474 348L476.036 353.162C476.224 353.638 476.318 353.876 476.461 354.077C476.589 354.255 476.745 354.411 476.923 354.539C477.124 354.682 477.362 354.776 477.839 354.964L483 357L477.839 359.036C477.362 359.224 477.124 359.318 476.923 359.461C476.745 359.589 476.589 359.745 476.461 359.923C476.318 360.124 476.224 360.362 476.036 360.839L474 366L471.964 360.839C471.776 360.362 471.682 360.124 471.539 359.923C471.411 359.745 471.255 359.589 471.077 359.461C470.876 359.318 470.638 359.224 470.162 359.036L465 357L470.162 354.964C470.638 354.776 470.876 354.682 471.077 354.539C471.255 354.411 471.411 354.255 471.539 354.077C471.682 353.876 471.776 353.638 471.964 353.162L474 348Z" fill="#C2C5EB" stroke="#C2C5EB" stroke-width="2" stroke-linecap="round" stroke-linejoin="round"/>
<path d="M220 366L222.036 371.162C222.224 371.638 222.318 371.876 222.461 372.077C222.589 372.255 222.745 372.411 222.923 372.539C223.124 372.682 223.362 372.776 223.839 372.964L229 375L223.839 377.036C223.362 377.224 223.124 377.318 222.923 377.461C222.745 377.589 222.589 377.745 222.461 377.923C222.318 378.124 222.224 378.362 222.036 378.839L220 384L217.964 378.839C217.776 378.362 217.682 378.124 217.539 377.923C217.411 377.745 217.255 377.589 217.077 377.461C216.876 377.318 216.638 377.224 216.162 377.036L211 375L216.162 372.964C216.638 372.776 216.876 372.682 217.077 372.539C217.255 372.411 217.411 372.255 217.539 372.077C217.682 371.876 217.776 371.638 217.964 371.162L220 366Z" fill="#DB4F7D" stroke="#DB4F7D" stroke-width="2" stroke-linecap="round" stroke-linejoin="round"/>
<path d="M63 309L65.0357 314.162C65.2236 314.638 65.3175 314.876 65.4614 315.077C65.5889 315.255 65.7448 315.411 65.9229 315.539C66.1238 315.682 66.362 315.776 66.8385 315.964L72 318L66.8385 320.036C66.362 320.224 66.1238 320.318 65.9229 320.461C65.7448 320.589 65.5889 320.745 65.4614 320.923C65.3175 321.124 65.2236 321.362 65.0357 321.839L63 327L60.9643 321.839C60.7764 321.362 60.6825 321.124 60.5386 320.923C60.4111 320.745 60.2552 320.589 60.0771 320.461C59.8762 320.318 59.638 320.224 59.1615 320.036L54 318L59.1615 315.964C59.638 315.776 59.8762 315.682 60.0771 315.539C60.2552 315.411 60.4111 315.255 60.5386 315.077C60.6825 314.876 60.7764 314.638 60.9643 314.162L63 309Z" fill="#C2C5EB" stroke="#C2C5EB" stroke-width="2" stroke-linecap="round" stroke-linejoin="round"/>
<path d="M388 348L390.036 353.162C390.224 353.638 390.318 353.876 390.461 354.077C390.589 354.255 390.745 354.411 390.923 354.539C391.124 354.682 391.362 354.776 391.839 354.964L397 357L391.839 359.036C391.362 359.224 391.124 359.318 390.923 359.461C390.745 359.589 390.589 359.745 390.461 359.923C390.318 360.124 390.224 360.362 390.036 360.839L388 366L385.964 360.839C385.776 360.362 385.682 360.124 385.539 359.923C385.411 359.745 385.255 359.589 385.077 359.461C384.876 359.318 384.638 359.224 384.162 359.036L379 357L384.162 354.964C384.638 354.776 384.876 354.682 385.077 354.539C385.255 354.411 385.411 354.255 385.539 354.077C385.682 353.876 385.776 353.638 385.964 353.162L388 348Z" fill="#DB4F7D" stroke="#DB4F7D" stroke-width="2" stroke-linecap="round" stroke-linejoin="round"/>
<path d="M265 29L267.036 34.1615C267.224 34.638 267.318 34.8762 267.461 35.0771C267.589 35.2552 267.745 35.4111 267.923 35.5386C268.124 35.6825 268.362 35.7764 268.839 35.9643L274 38L268.839 40.0357C268.362 40.2236 268.124 40.3175 267.923 40.4614C267.745 40.5889 267.589 40.7448 267.461 40.9229C267.318 41.1238 267.224 41.362 267.036 41.8385L265 47L262.964 41.8385C262.776 41.362 262.682 41.1238 262.539 40.9229C262.411 40.7448 262.255 40.5889 262.077 40.4614C261.876 40.3175 261.638 40.2236 261.162 40.0357L256 38L261.162 35.9643C261.638 35.7764 261.876 35.6825 262.077 35.5386C262.255 35.4111 262.411 35.2552 262.539 35.0771C262.682 34.8762 262.776 34.638 262.964 34.1615L265 29Z" fill="#C2C5EB" stroke="#C2C5EB" stroke-width="2" stroke-linecap="round" stroke-linejoin="round"/>
<path d="M317 113L319.036 118.162C319.224 118.638 319.318 118.876 319.461 119.077C319.589 119.255 319.745 119.411 319.923 119.539C320.124 119.682 320.362 119.776 320.839 119.964L326 122L320.839 124.036C320.362 124.224 320.124 124.318 319.923 124.461C319.745 124.589 319.589 124.745 319.461 124.923C319.318 125.124 319.224 125.362 319.036 125.839L317 131L314.964 125.839C314.776 125.362 314.682 125.124 314.539 124.923C314.411 124.745 314.255 124.589 314.077 124.461C313.876 124.318 313.638 124.224 313.162 124.036L308 122L313.162 119.964C313.638 119.776 313.876 119.682 314.077 119.539C314.255 119.411 314.411 119.255 314.539 119.077C314.682 118.876 314.776 118.638 314.964 118.162L317 113Z" fill="#DB4F7D" stroke="#DB4F7D" stroke-width="2" stroke-linecap="round" stroke-linejoin="round"/>
<path d="M336 47L338.036 52.1615C338.224 52.638 338.318 52.8762 338.461 53.0771C338.589 53.2552 338.745 53.4111 338.923 53.5386C339.124 53.6825 339.362 53.7764 339.839 53.9643L345 56L339.839 58.0357C339.362 58.2236 339.124 58.3175 338.923 58.4614C338.745 58.5889 338.589 58.7448 338.461 58.9229C338.318 59.1238 338.224 59.362 338.036 59.8385L336 65L333.964 59.8385C333.776 59.362 333.682 59.1238 333.539 58.9229C333.411 58.7448 333.255 58.5889 333.077 58.4614C332.876 58.3175 332.638 58.2236 332.162 58.0357L327 56L332.162 53.9643C332.638 53.7764 332.876 53.6825 333.077 53.5386C333.255 53.4111 333.411 53.2552 333.539 53.0771C333.682 52.8762 333.776 52.638 333.964 52.1615L336 47Z" fill="#DB4F7D" stroke="#DB4F7D" stroke-width="2" stroke-linecap="round" stroke-linejoin="round"/>
<path d="M161 131L163.036 136.162C163.224 136.638 163.318 136.876 163.461 137.077C163.589 137.255 163.745 137.411 163.923 137.539C164.124 137.682 164.362 137.776 164.839 137.964L170 140L164.839 142.036C164.362 142.224 164.124 142.318 163.923 142.461C163.745 142.589 163.589 142.745 163.461 142.923C163.318 143.124 163.224 143.362 163.036 143.839L161 149L158.964 143.839C158.776 143.362 158.682 143.124 158.539 142.923C158.411 142.745 158.255 142.589 158.077 142.461C157.876 142.318 157.638 142.224 157.162 142.036L152 140L157.162 137.964C157.638 137.776 157.876 137.682 158.077 137.539C158.255 137.411 158.411 137.255 158.539 137.077C158.682 136.876 158.776 136.638 158.964 136.162L161 131Z" fill="#DB4F7D" stroke="#DB4F7D" stroke-width="2" stroke-linecap="round" stroke-linejoin="round"/>
<path d="M63 6L65.0357 11.1615C65.2236 11.638 65.3175 11.8762 65.4614 12.0771C65.5889 12.2552 65.7448 12.4111 65.9229 12.5386C66.1238 12.6825 66.362 12.7764 66.8385 12.9643L72 15L66.8385 17.0357C66.362 17.2236 66.1238 17.3175 65.9229 17.4614C65.7448 17.5889 65.5889 17.7448 65.4614 17.9229C65.3175 18.1238 65.2236 18.362 65.0357 18.8385L63 24L60.9643 18.8385C60.7764 18.362 60.6825 18.1238 60.5386 17.9229C60.4111 17.7448 60.2552 17.5889 60.0771 17.4614C59.8762 17.3175 59.638 17.2236 59.1615 17.0357L54 15L59.1615 12.9643C59.638 12.7764 59.8762 12.6825 60.0771 12.5386C60.2552 12.4111 60.4111 12.2552 60.5386 12.0771C60.6825 11.8762 60.7764 11.638 60.9643 11.1615L63 6Z" fill="#C2C5EB" stroke="#C2C5EB" stroke-width="2" stroke-linecap="round" stroke-linejoin="round"/>
<path d="M135 29L137.036 34.1615C137.224 34.638 137.318 34.8762 137.461 35.0771C137.589 35.2552 137.745 35.4111 137.923 35.5386C138.124 35.6825 138.362 35.7764 138.839 35.9643L144 38L138.839 40.0357C138.362 40.2236 138.124 40.3175 137.923 40.4614C137.745 40.5889 137.589 40.7448 137.461 40.9229C137.318 41.1238 137.224 41.362 137.036 41.8385L135 47L132.964 41.8385C132.776 41.362 132.682 41.1238 132.539 40.9229C132.411 40.7448 132.255 40.5889 132.077 40.4614C131.876 40.3175 131.638 40.2236 131.162 40.0357L126 38L131.162 35.9643C131.638 35.7764 131.876 35.6825 132.077 35.5386C132.255 35.4111 132.411 35.2552 132.539 35.0771C132.682 34.8762 132.776 34.638 132.964 34.1615L135 29Z" fill="#C2C5EB" stroke="#C2C5EB" stroke-width="2" stroke-linecap="round" stroke-linejoin="round"/>
<path d="M451 155L453.036 160.162C453.224 160.638 453.318 160.876 453.461 161.077C453.589 161.255 453.745 161.411 453.923 161.539C454.124 161.682 454.362 161.776 454.839 161.964L460 164L454.839 166.036C454.362 166.224 454.124 166.318 453.923 166.461C453.745 166.589 453.589 166.745 453.461 166.923C453.318 167.124 453.224 167.362 453.036 167.839L451 173L448.964 167.839C448.776 167.362 448.682 167.124 448.539 166.923C448.411 166.745 448.255 166.589 448.077 166.461C447.876 166.318 447.638 166.224 447.162 166.036L442 164L447.162 161.964C447.638 161.776 447.876 161.682 448.077 161.539C448.255 161.411 448.411 161.255 448.539 161.077C448.682 160.876 448.776 160.638 448.964 160.162L451 155Z" fill="#C2C5EB" stroke="#C2C5EB" stroke-width="2" stroke-linecap="round" stroke-linejoin="round"/>
<path d="M35 95L37.0357 100.162C37.2236 100.638 37.3175 100.876 37.4614 101.077C37.5889 101.255 37.7448 101.411 37.9229 101.539C38.1238 101.682 38.362 101.776 38.8385 101.964L44 104L38.8385 106.036C38.362 106.224 38.1238 106.318 37.9229 106.461C37.7448 106.589 37.5889 106.745 37.4614 106.923C37.3175 107.124 37.2236 107.362 37.0357 107.839L35 113L32.9643 107.839C32.7764 107.362 32.6825 107.124 32.5386 106.923C32.4111 106.745 32.2552 106.589 32.0771 106.461C31.8762 106.318 31.638 106.224 31.1615 106.036L26 104L31.1615 101.964C31.638 101.776 31.8762 101.682 32.0771 101.539C32.2552 101.411 32.4111 101.255 32.5386 101.077C32.6825 100.876 32.7764 100.638 32.9643 100.162L35 95Z" fill="#C2C5EB" stroke="#C2C5EB" stroke-width="2" stroke-linecap="round" stroke-linejoin="round"/>
<path d="M289 470L291.036 475.162C291.224 475.638 291.318 475.876 291.461 476.077C291.589 476.255 291.745 476.411 291.923 476.539C292.124 476.682 292.362 476.776 292.839 476.964L298 479L292.839 481.036C292.362 481.224 292.124 481.318 291.923 481.461C291.745 481.589 291.589 481.745 291.461 481.923C291.318 482.124 291.224 482.362 291.036 482.839L289 488L286.964 482.839C286.776 482.362 286.682 482.124 286.539 481.923C286.411 481.745 286.255 481.589 286.077 481.461C285.876 481.318 285.638 481.224 285.162 481.036L280 479L285.162 476.964C285.638 476.776 285.876 476.682 286.077 476.539C286.255 476.411 286.411 476.255 286.539 476.077C286.682 475.876 286.776 475.638 286.964 475.162L289 470Z" fill="#C2C5EB" stroke="#C2C5EB" stroke-width="2" stroke-linecap="round" stroke-linejoin="round"/>
<path d="M307 394L309.036 399.162C309.224 399.638 309.318 399.876 309.461 400.077C309.589 400.255 309.745 400.411 309.923 400.539C310.124 400.682 310.362 400.776 310.839 400.964L316 403L310.839 405.036C310.362 405.224 310.124 405.318 309.923 405.461C309.745 405.589 309.589 405.745 309.461 405.923C309.318 406.124 309.224 406.362 309.036 406.839L307 412L304.964 406.839C304.776 406.362 304.682 406.124 304.539 405.923C304.411 405.745 304.255 405.589 304.077 405.461C303.876 405.318 303.638 405.224 303.162 405.036L298 403L303.162 400.964C303.638 400.776 303.876 400.682 304.077 400.539C304.255 400.411 304.411 400.255 304.539 400.077C304.682 399.876 304.776 399.638 304.964 399.162L307 394Z" fill="#DB4F7D" stroke="#DB4F7D" stroke-width="2" stroke-linecap="round" stroke-linejoin="round"/>
<path d="M256 155L258.036 160.162C258.224 160.638 258.318 160.876 258.461 161.077C258.589 161.255 258.745 161.411 258.923 161.539C259.124 161.682 259.362 161.776 259.839 161.964L265 164L259.839 166.036C259.362 166.224 259.124 166.318 258.923 166.461C258.745 166.589 258.589 166.745 258.461 166.923C258.318 167.124 258.224 167.362 258.036 167.839L256 173L253.964 167.839C253.776 167.362 253.682 167.124 253.539 166.923C253.411 166.745 253.255 166.589 253.077 166.461C252.876 166.318 252.638 166.224 252.162 166.036L247 164L252.162 161.964C252.638 161.776 252.876 161.682 253.077 161.539C253.255 161.411 253.411 161.255 253.539 161.077C253.682 160.876 253.776 160.638 253.964 160.162L256 155Z" fill="#DB4F7D" stroke="#DB4F7D" stroke-width="2" stroke-linecap="round" stroke-linejoin="round"/>
<path d="M433 96L435.036 101.162C435.224 101.638 435.318 101.876 435.461 102.077C435.589 102.255 435.745 102.411 435.923 102.539C436.124 102.682 436.362 102.776 436.839 102.964L442 105L436.839 107.036C436.362 107.224 436.124 107.318 435.923 107.461C435.745 107.589 435.589 107.745 435.461 107.923C435.318 108.124 435.224 108.362 435.036 108.839L433 114L430.964 108.839C430.776 108.362 430.682 108.124 430.539 107.923C430.411 107.745 430.255 107.589 430.077 107.461C429.876 107.318 429.638 107.224 429.162 107.036L424 105L429.162 102.964C429.638 102.776 429.876 102.682 430.077 102.539C430.255 102.411 430.411 102.255 430.539 102.077C430.682 101.876 430.776 101.638 430.964 101.162L433 96Z" fill="#DB4F7D" stroke="#DB4F7D" stroke-width="2" stroke-linecap="round" stroke-linejoin="round"/>
<path d="M66 146L68.0357 151.162C68.2236 151.638 68.3175 151.876 68.4614 152.077C68.5889 152.255 68.7448 152.411 68.9229 152.539C69.1238 152.682 69.362 152.776 69.8385 152.964L75 155L69.8385 157.036C69.362 157.224 69.1238 157.318 68.9229 157.461C68.7448 157.589 68.5889 157.745 68.4614 157.923C68.3175 158.124 68.2236 158.362 68.0357 158.839L66 164L63.9643 158.839C63.7764 158.362 63.6825 158.124 63.5386 157.923C63.4111 157.745 63.2552 157.589 63.0771 157.461C62.8762 157.318 62.638 157.224 62.1615 157.036L57 155L62.1615 152.964C62.638 152.776 62.8762 152.682 63.0771 152.539C63.2552 152.411 63.4111 152.255 63.5386 152.077C63.6825 151.876 63.7764 151.638 63.9643 151.162L66 146Z" fill="#DB4F7D" stroke="#DB4F7D" stroke-width="2" stroke-linecap="round" stroke-linejoin="round"/>
<path d="M193 448L195.036 453.162C195.224 453.638 195.318 453.876 195.461 454.077C195.589 454.255 195.745 454.411 195.923 454.539C196.124 454.682 196.362 454.776 196.839 454.964L202 457L196.839 459.036C196.362 459.224 196.124 459.318 195.923 459.461C195.745 459.589 195.589 459.745 195.461 459.923C195.318 460.124 195.224 460.362 195.036 460.839L193 466L190.964 460.839C190.776 460.362 190.682 460.124 190.539 459.923C190.411 459.745 190.255 459.589 190.077 459.461C189.876 459.318 189.638 459.224 189.162 459.036L184 457L189.162 454.964C189.638 454.776 189.876 454.682 190.077 454.539C190.255 454.411 190.411 454.255 190.539 454.077C190.682 453.876 190.776 453.638 190.964 453.162L193 448Z" fill="#DB4F7D" stroke="#DB4F7D" stroke-width="2" stroke-linecap="round" stroke-linejoin="round"/>
<path d="M17 11L19.0357 16.1615C19.2236 16.638 19.3175 16.8762 19.4614 17.0771C19.5889 17.2552 19.7448 17.4111 19.9229 17.5386C20.1238 17.6825 20.362 17.7764 20.8385 17.9643L26 20L20.8385 22.0357C20.362 22.2236 20.1238 22.3175 19.9229 22.4614C19.7448 22.5889 19.5889 22.7448 19.4614 22.9229C19.3175 23.1238 19.2236 23.362 19.0357 23.8385L17 29L14.9643 23.8385C14.7764 23.362 14.6825 23.1238 14.5386 22.9229C14.4111 22.7448 14.2552 22.5889 14.0771 22.4614C13.8762 22.3175 13.638 22.2236 13.1615 22.0357L8 20L13.1615 17.9643C13.638 17.7764 13.8762 17.6825 14.0771 17.5386C14.2552 17.4111 14.4111 17.2552 14.5386 17.0771C14.6825 16.8762 14.7764 16.638 14.9643 16.1615L17 11Z" fill="#DB4F7D" stroke="#DB4F7D" stroke-width="2" stroke-linecap="round" stroke-linejoin="round"/>
<path d="M465 264L467.036 269.162C467.224 269.638 467.318 269.876 467.461 270.077C467.589 270.255 467.745 270.411 467.923 270.539C468.124 270.682 468.362 270.776 468.839 270.964L474 273L468.839 275.036C468.362 275.224 468.124 275.318 467.923 275.461C467.745 275.589 467.589 275.745 467.461 275.923C467.318 276.124 467.224 276.362 467.036 276.839L465 282L462.964 276.839C462.776 276.362 462.682 276.124 462.539 275.923C462.411 275.745 462.255 275.589 462.077 275.461C461.876 275.318 461.638 275.224 461.162 275.036L456 273L461.162 270.964C461.638 270.776 461.876 270.682 462.077 270.539C462.255 270.411 462.411 270.255 462.539 270.077C462.682 269.876 462.776 269.638 462.964 269.162L465 264Z" fill="#DB4F7D" stroke="#DB4F7D" stroke-width="2" stroke-linecap="round" stroke-linejoin="round"/>
<path d="M104 412L106.036 417.162C106.224 417.638 106.318 417.876 106.461 418.077C106.589 418.255 106.745 418.411 106.923 418.539C107.124 418.682 107.362 418.776 107.839 418.964L113 421L107.839 423.036C107.362 423.224 107.124 423.318 106.923 423.461C106.745 423.589 106.589 423.745 106.461 423.923C106.318 424.124 106.224 424.362 106.036 424.839L104 430L101.964 424.839C101.776 424.362 101.682 424.124 101.539 423.923C101.411 423.745 101.255 423.589 101.077 423.461C100.876 423.318 100.638 423.224 100.162 423.036L95 421L100.162 418.964C100.638 418.776 100.876 418.682 101.077 418.539C101.255 418.411 101.411 418.255 101.539 418.077C101.682 417.876 101.776 417.638 101.964 417.162L104 412Z" fill="#DB4F7D" stroke="#DB4F7D" stroke-width="2" stroke-linecap="round" stroke-linejoin="round"/>
<path d="M363 430L365.036 435.162C365.224 435.638 365.318 435.876 365.461 436.077C365.589 436.255 365.745 436.411 365.923 436.539C366.124 436.682 366.362 436.776 366.839 436.964L372 439L366.839 441.036C366.362 441.224 366.124 441.318 365.923 441.461C365.745 441.589 365.589 441.745 365.461 441.923C365.318 442.124 365.224 442.362 365.036 442.839L363 448L360.964 442.839C360.776 442.362 360.682 442.124 360.539 441.923C360.411 441.745 360.255 441.589 360.077 441.461C359.876 441.318 359.638 441.224 359.162 441.036L354 439L359.162 436.964C359.638 436.776 359.876 436.682 360.077 436.539C360.255 436.411 360.411 436.255 360.539 436.077C360.682 435.876 360.776 435.638 360.964 435.162L363 430Z" fill="#DB4F7D" stroke="#DB4F7D" stroke-width="2" stroke-linecap="round" stroke-linejoin="round"/>
<path d="M113 78L115.036 83.1615C115.224 83.638 115.318 83.8762 115.461 84.0771C115.589 84.2552 115.745 84.4111 115.923 84.5386C116.124 84.6825 116.362 84.7764 116.839 84.9643L122 87L116.839 89.0357C116.362 89.2236 116.124 89.3175 115.923 89.4614C115.745 89.5889 115.589 89.7448 115.461 89.9229C115.318 90.1238 115.224 90.362 115.036 90.8385L113 96L110.964 90.8385C110.776 90.362 110.682 90.1238 110.539 89.9229C110.411 89.7448 110.255 89.5889 110.077 89.4614C109.876 89.3175 109.638 89.2236 109.162 89.0357L104 87L109.162 84.9643C109.638 84.7764 109.876 84.6825 110.077 84.5386C110.255 84.4111 110.411 84.2552 110.539 84.0771C110.682 83.8762 110.776 83.638 110.964 83.1615L113 78Z" fill="#DB4F7D" stroke="#DB4F7D" stroke-width="2" stroke-linecap="round" stroke-linejoin="round"/>
<path d="M465 470L467.036 475.162C467.224 475.638 467.318 475.876 467.461 476.077C467.589 476.255 467.745 476.411 467.923 476.539C468.124 476.682 468.362 476.776 468.839 476.964L474 479L468.839 481.036C468.362 481.224 468.124 481.318 467.923 481.461C467.745 481.589 467.589 481.745 467.461 481.923C467.318 482.124 467.224 482.362 467.036 482.839L465 488L462.964 482.839C462.776 482.362 462.682 482.124 462.539 481.923C462.411 481.745 462.255 481.589 462.077 481.461C461.876 481.318 461.638 481.224 461.162 481.036L456 479L461.162 476.964C461.638 476.776 461.876 476.682 462.077 476.539C462.255 476.411 462.411 476.255 462.539 476.077C462.682 475.876 462.776 475.638 462.964 475.162L465 470Z" fill="#DB4F7D" stroke="#DB4F7D" stroke-width="2" stroke-linecap="round" stroke-linejoin="round"/>
<path d="M72 461L74.0357 466.162C74.2236 466.638 74.3175 466.876 74.4614 467.077C74.5889 467.255 74.7448 467.411 74.9229 467.539C75.1238 467.682 75.362 467.776 75.8385 467.964L81 470L75.8385 472.036C75.362 472.224 75.1238 472.318 74.9229 472.461C74.7448 472.589 74.5889 472.745 74.4614 472.923C74.3175 473.124 74.2236 473.362 74.0357 473.839L72 479L69.9643 473.839C69.7764 473.362 69.6825 473.124 69.5386 472.923C69.4111 472.745 69.2552 472.589 69.0771 472.461C68.8762 472.318 68.638 472.224 68.1615 472.036L63 470L68.1615 467.964C68.638 467.776 68.8762 467.682 69.0771 467.539C69.2552 467.411 69.4111 467.255 69.5386 467.077C69.6825 466.876 69.7764 466.638 69.9643 466.162L72 461Z" fill="#C2C5EB" stroke="#C2C5EB" stroke-width="2" stroke-linecap="round" stroke-linejoin="round"/>
<path d="M406 38L408.036 43.1615C408.224 43.638 408.318 43.8762 408.461 44.0771C408.589 44.2552 408.745 44.4111 408.923 44.5386C409.124 44.6825 409.362 44.7764 409.839 44.9643L415 47L409.839 49.0357C409.362 49.2236 409.124 49.3175 408.923 49.4614C408.745 49.5889 408.589 49.7448 408.461 49.9229C408.318 50.1238 408.224 50.362 408.036 50.8385L406 56L403.964 50.8385C403.776 50.362 403.682 50.1238 403.539 49.9229C403.411 49.7448 403.255 49.5889 403.077 49.4614C402.876 49.3175 402.638 49.2236 402.162 49.0357L397 47L402.162 44.9643C402.638 44.7764 402.876 44.6825 403.077 44.5386C403.255 44.4111 403.411 44.2552 403.539 44.0771C403.682 43.8762 403.776 43.638 403.964 43.1615L406 38Z" fill="#C2C5EB" stroke="#C2C5EB" stroke-width="2" stroke-linecap="round" stroke-linejoin="round"/>
</svg>
